<?xml version="1.0" standalone="no"?>
<!DOCTYPE svg PUBLIC "-//W3C//DTD SVG 20010904//EN"
 "http://www.w3.org/TR/2001/REC-SVG-20010904/DTD/svg10.dtd">
<svg version="1.0" xmlns="http://www.w3.org/2000/svg"
 width="1000.000000pt" height="1000.000000pt" viewBox="0 0 1000.000000 1000.000000"
 preserveAspectRatio="xMidYMid meet">
<metadata>
Created by potrace 1.14, written by Peter Selinger 2001-2017
</metadata>
<g transform="translate(0.000000,1000.000000) scale(0.100000,-0.100000)"
fill="#000000" stroke="none">
<path d="M1846 9984 c-954 -129 -1706 -885 -1831 -1837 -13 -104 -15 -479 -15
-3147 0 -2668 2 -3043 15 -3147 125 -956 882 -1713 1838 -1838 104 -13 479
-15 3147 -15 2668 0 3043 2 3147 15 233 31 440 93 658 199 641 311 1087 931
1180 1639 13 104 15 479 15 3147 0 2668 -2 3043 -15 3147 -31 234 -94 442
-199 658 -315 645 -929 1086 -1640 1180 -103 13 -478 15 -3159 14 -2490 -1
-3060 -4 -3141 -15z m3102 -835 c1004 -71 1740 -483 2062 -1154 226 -470 226
-1070 0 -1543 -135 -282 -374 -559 -687 -794 -127 -95 -316 -220 -420 -278
-24 -13 -43 -27 -43 -31 0 -12 802 -689 810 -684 12 8 101 239 150 389 43 135
110 400 131 521 7 39 14 71 15 73 4 5 1958 -579 1967 -587 17 -16 -98 -427
-189 -677 -121 -336 -338 -775 -507 -1025 l-18 -26 360 -304 c198 -167 359
-307 358 -312 -4 -13 -1309 -1487 -1318 -1487 -6 0 -671 568 -786 672 l-22 20
-98 -59 c-750 -455 -1551 -673 -2468 -673 -739 0 -1359 135 -1928 421 -269
135 -477 281 -676 474 -308 300 -477 595 -558 974 -25 117 -27 144 -27 366 -1
264 10 364 64 583 71 290 210 568 403 807 87 107 308 322 434 423 117 92 354
253 490 331 l92 53 -76 86 c-426 487 -618 998 -575 1530 33 406 163 728 415
1029 309 367 791 645 1362 784 213 51 385 76 710 102 99 8 440 6 573 -4z"/>
<path d="M4544 7560 c-133 -19 -218 -55 -294 -126 -149 -139 -170 -381 -49
-578 42 -67 140 -183 233 -275 l75 -74 93 56 c277 166 448 337 494 494 22 76
16 210 -14 276 -44 99 -160 191 -274 216 -67 15 -196 21 -264 11z"/>
<path d="M3833 4374 c-137 -110 -224 -215 -287 -347 -57 -119 -78 -207 -79
-332 -1 -239 114 -416 354 -544 166 -88 344 -124 614 -124 217 0 354 19 565
77 121 33 290 96 293 108 2 5 -1367 1187 -1393 1203 -5 3 -35 -16 -67 -41z"/>
</g>
</svg>
