<svg id="Layer_1" data-name="Layer 1" xmlns="http://www.w3.org/2000/svg" xmlns:xlink="http://www.w3.org/1999/xlink" viewBox="0 0 1919.7 321.64"><defs><style>.cls-1{fill:url(#linear-gradient);}</style><linearGradient id="linear-gradient" x1="-0.92" y1="416.44" x2="1918.78" y2="416.44" gradientUnits="userSpaceOnUse"><stop offset="0" stop-color="#00b49c"/><stop offset="1" stop-color="#0c99ab"/></linearGradient></defs><title>Untitled-1</title><path d="M-.92,328.45H114.43q40.06,0,71.09,15T233.6,386q17.07,27.53,17.08,64.46T233.6,514.88q-17.07,27.54-48.08,42.51t-71.09,15H-.92ZM111.64,517.32q31.37,0,50.35-17.77t19-49.14q0-31.37-19-49.13t-50.35-17.77H68.08V517.32Z" transform="translate(0.92 -255.62)"/><path d="M286.92,328.45h69V572.38h-69Z" transform="translate(0.92 -255.62)"/><path d="M651.76,328.45,547.22,572.38h-68L375.08,328.45h74.57l66.21,158.9,67.6-158.9Z" transform="translate(0.92 -255.62)"/><path d="M861.89,519.06v53.32H666.05V328.45H857.36v53.31h-123v41.12H842.72v51.58H734.35v44.6Z" transform="translate(0.92 -255.62)"/><path d="M1006.85,507.56H969.22v64.82h-69V328.45h111.51q33.11,0,57.5,11t37.63,31.37q13.25,20.38,13.24,47.91,0,26.49-12.37,46.18t-35.37,30.83L1125,572.38h-73.87Zm32.76-115.34q-10.81-9.41-32.06-9.41H969.22v71.44h38.33q21.24,0,32.06-9.24t10.8-26.31Q1050.41,401.63,1039.61,392.22Z" transform="translate(0.92 -255.62)"/><path d="M1186.31,569.94q-27.88-7.32-45.3-19.52l22.65-50.87a146.54,146.54,0,0,0,38,17.42,144.41,144.41,0,0,0,42.52,6.62q39.72,0,39.72-19.86,0-10.46-11.32-15.51t-36.42-10.63q-27.53-5.91-46-12.71a77.54,77.54,0,0,1-31.71-21.78q-13.25-15-13.24-40.43a70,70,0,0,1,12.2-40.25q12.19-17.94,36.41-28.4t59.42-10.45a209.65,209.65,0,0,1,47.39,5.4q23.34,5.41,41.12,15.86l-21.26,51.22q-34.85-18.81-67.6-18.82-20.56,0-30,6.1t-9.41,15.86q0,9.75,11.15,14.63t35.89,10.11q27.88,5.93,46.18,12.72a79.84,79.84,0,0,1,31.71,21.6q13.41,14.82,13.41,40.25a68.62,68.62,0,0,1-12.19,39.73q-12.21,17.78-36.59,28.4t-59.24,10.63A225.42,225.42,0,0,1,1186.31,569.94Z" transform="translate(0.92 -255.62)"/><path d="M1383.54,328.45h69V572.38h-69Z" transform="translate(0.92 -255.62)"/><path d="M1553.59,383.16h-74.92V328.45h218.49v54.71h-74.57V572.38h-69Z" transform="translate(0.92 -255.62)"/><path d="M1918.78,519.06v53.32H1722.94V328.45h191.31v53.31h-123v41.12h108.38v51.58H1791.24v44.6Zm-87.46-263.44h66.21l-65.52,53h-47.39Z" transform="translate(0.92 -255.62)"/><path class="cls-1" d="M-.92,328.45H114.43q40.06,0,71.09,15T233.6,386q17.07,27.53,17.08,64.46T233.6,514.88q-17.07,27.54-48.08,42.51t-71.09,15H-.92ZM111.64,517.32q31.37,0,50.35-17.77t19-49.14q0-31.37-19-49.13t-50.35-17.77H68.08V517.32Z" transform="translate(0.92 -255.62)"/><path class="cls-1" d="M286.92,328.45h69V572.38h-69Z" transform="translate(0.92 -255.62)"/><path class="cls-1" d="M651.76,328.45,547.22,572.38h-68L375.08,328.45h74.57l66.21,158.9,67.6-158.9Z" transform="translate(0.92 -255.62)"/><path class="cls-1" d="M861.89,519.06v53.32H666.05V328.45H857.36v53.31h-123v41.12H842.72v51.58H734.35v44.6Z" transform="translate(0.92 -255.62)"/><path class="cls-1" d="M1006.85,507.56H969.22v64.82h-69V328.45h111.51q33.11,0,57.5,11t37.63,31.37q13.25,20.38,13.24,47.91,0,26.49-12.37,46.18t-35.37,30.83L1125,572.38h-73.87Zm32.76-115.34q-10.81-9.41-32.06-9.41H969.22v71.44h38.33q21.24,0,32.06-9.24t10.8-26.31Q1050.41,401.63,1039.61,392.22Z" transform="translate(0.92 -255.62)"/><path class="cls-1" d="M1186.31,569.94q-27.88-7.32-45.3-19.52l22.65-50.87a146.54,146.54,0,0,0,38,17.42,144.41,144.41,0,0,0,42.52,6.62q39.72,0,39.72-19.86,0-10.46-11.32-15.51t-36.42-10.63q-27.53-5.91-46-12.71a77.54,77.54,0,0,1-31.71-21.78q-13.25-15-13.24-40.43a70,70,0,0,1,12.2-40.25q12.19-17.94,36.41-28.4t59.42-10.45a209.65,209.65,0,0,1,47.39,5.4q23.34,5.41,41.12,15.86l-21.26,51.22q-34.85-18.81-67.6-18.82-20.56,0-30,6.1t-9.41,15.86q0,9.75,11.15,14.63t35.89,10.11q27.88,5.93,46.18,12.72a79.84,79.84,0,0,1,31.71,21.6q13.41,14.82,13.41,40.25a68.62,68.62,0,0,1-12.19,39.73q-12.21,17.78-36.59,28.4t-59.24,10.63A225.42,225.42,0,0,1,1186.31,569.94Z" transform="translate(0.92 -255.62)"/><path class="cls-1" d="M1383.54,328.45h69V572.38h-69Z" transform="translate(0.92 -255.62)"/><path class="cls-1" d="M1553.59,383.16h-74.92V328.45h218.49v54.71h-74.57V572.38h-69Z" transform="translate(0.92 -255.62)"/><path class="cls-1" d="M1918.78,519.06v53.32H1722.94V328.45h191.31v53.31h-123v41.12h108.38v51.58H1791.24v44.6Zm-87.46-263.44h66.21l-65.52,53h-47.39Z" transform="translate(0.92 -255.62)"/></svg>