<svg id="Layer_1" data-name="Layer 1" xmlns="http://www.w3.org/2000/svg" xmlns:xlink="http://www.w3.org/1999/xlink" viewBox="0 0 1932.72 252.47"><defs><style>.cls-1{fill:url(#linear-gradient);}</style><linearGradient id="linear-gradient" y1="126.24" x2="1932.72" y2="126.24" gradientUnits="userSpaceOnUse"><stop offset="0" stop-color="#00b49c"/><stop offset="1" stop-color="#0c99ab"/></linearGradient></defs><title>Untitled-1</title><path class="cls-1" d="M0,4.86H114.79q39.88,0,70.75,14.91T233.4,62.08q17,27.4,17,64.16t-17,64.16q-17,27.39-47.86,42.31t-70.75,14.91H0Zm112,188q31.22,0,50.11-17.68t18.9-48.9q0-31.21-18.9-48.9T112,59.65H68.67V192.82Z"/><path class="cls-1" d="M286.46,4.86h68.67V247.62H286.46Z"/><path class="cls-1" d="M649.56,4.86l-104,242.76H477.89L374.2,4.86h74.21L514.31,163,581.59,4.86Z"/><path class="cls-1" d="M858.68,194.56v53.06H663.78V4.86H854.17V57.92H731.75V98.84H839.61v51.33H731.75v44.39Z"/><path class="cls-1" d="M1003,183.11H965.5v64.51H896.83V4.86h111q32.94,0,57.22,10.92T1102.48,47q13.18,20.29,13.18,47.69,0,26.35-12.31,45.95t-35.2,30.69l52.37,76.3H1047Zm32.6-114.79Q1024.8,59,1003.64,59H965.5v71.09h38.14q21.15,0,31.91-9.19t10.75-26.18Q1046.3,77.68,1035.55,68.32Z"/><path class="cls-1" d="M1181.55,245.19q-27.75-7.27-45.08-19.42L1159,175.14a145.64,145.64,0,0,0,37.8,17.34,144,144,0,0,0,42.31,6.59q39.54,0,39.54-19.77,0-10.41-11.27-15.43t-36.24-10.58q-27.4-5.89-45.78-12.66A76.92,76.92,0,0,1,1153.81,119q-13.18-14.9-13.18-40.23a69.59,69.59,0,0,1,12.14-40Q1164.9,20.81,1189,10.4T1248.14,0a208.2,208.2,0,0,1,47.16,5.38q23.23,5.37,40.93,15.78l-21.16,51q-34.68-18.73-67.28-18.73-20.46,0-29.82,6.07t-9.37,15.78q0,9.7,11.1,14.56t35.72,10.06q27.75,5.9,45.95,12.66a79.41,79.41,0,0,1,31.56,21.5q13.35,14.75,13.36,40.06a68.29,68.29,0,0,1-12.14,39.53q-12.15,17.69-36.42,28.27t-59,10.57A224.26,224.26,0,0,1,1181.55,245.19Z"/><path class="cls-1" d="M1377.84,4.86h68.67V247.62h-68.67Z"/><path class="cls-1" d="M1547.08,59.3h-74.57V4.86H1690V59.3h-74.21V247.62h-68.67Z"/><path class="cls-1" d="M1839.78,160.57v87.05h-68.67V159.53L1678.51,4.86H1751l57.57,96.41,57.57-96.41h66.58Z"/></svg>